<svg xmlns="http://www.w3.org/2000/svg" width="32" height="32" viewBox="0 0 32 32"><path fill="#3F95D4" d="M6 4h4c.553 0 1 .449 1 1.002v19.998c0 .553-.447 1-1 1h-4c-.553 0-1-.447-1-1v-19.999c0-.552.447-1.001 1-1.001z"/><path fill="#367FB4" d="M7 25v-19.999c0-.552.447-1.001 1-1.001h-2c-.553 0-1 .449-1 1.001v19.999c0 .553.447 1 1 1h2c-.553 0-1-.448-1-1z"/><path fill="#D99666" d="M0 26h32v6h-32v-6z"/><path fill="#F7CB8B" d="M5 19h6v4.002h-6v-4.002z"/><path fill="#349886" d="M12 0h6c.553 0 1 .449 1 1.002v23.998c0 .553-.447 1-1 1h-6c-.553 0-1-.447-1-1v-23.999c0-.552.447-1.001 1-1.001z"/><path fill="#9ACCC3" d="M14 22.001h2v-14.001h-2v14.001zm0-18.001v2h2v-2h-2z"/><path fill="#E2574C" d="M20 6h6c.553 0 1 .449 1 1v18c0 .553-.447 1-1 1h-6c-.553 0-1-.447-1-1v-18c0-.551.447-1 1-1z"/><rect x="5" y="19" fill="#D2AD77" width="2" height="4.002"/><path fill="#2C8172" d="M13 25v-23.999c0-.552.447-1.001 1-1.001h-2c-.553 0-1 .449-1 1.001v23.999c0 .553.447 1 1 1h2c-.553 0-1-.448-1-1z"/><path fill="#C04A40" d="M21 25v-18c0-.551.447-1 1-1h-2c-.553 0-1 .449-1 1v18c0 .553.447 1 1 1h2c-.553 0-1-.448-1-1z"/><path fill="#F7CB8B" d="M19 16h8v-4h-8v4zm0-6v1.002h8v-1.002h-8z"/><g fill="#D2AD77"><rect x="19" y="10" width="2" height="1.002"/><rect x="19" y="12" width="2" height="4"/></g></svg>
